<svg width="60" height="60" viewBox="0 0 100 100" xmlns="http://www.w3.org/2000/svg">
  <!-- Outer circle - exact thickness and color -->
  <circle cx="50" cy="50" r="47" fill="none" stroke="#1e3a8a" stroke-width="3"/>
  
  <!-- Hand/base shape - exact positioning -->
  <path d="M26 73 Q22 75 21 79 Q20 83 25 85 Q30 87 34 85 Q38 83 40 79 Q42 75 39 72 Q35 69 30 70 Q28 71 26 73" fill="#1e3a8a"/>
  
  <!-- Bar graphs - exact proportions and colors -->
  <rect x="30" y="60" width="8" height="15" fill="#1e3a8a" rx="1"/>
  <rect x="40" y="52" width="8" height="23" fill="#2563eb" rx="1"/>
  <rect x="50" y="44" width="8" height="31" fill="#3b82f6" rx="1"/>
  <rect x="60" y="36" width="8" height="39" fill="#10b981" rx="1"/>
  
  <!-- Arrow - exact curve and position -->
  <path d="M68 30 Q73 25 77 27 Q81 29 79 33" stroke="#10b981" stroke-width="3" fill="none" stroke-linecap="round"/>
  <path d="M79 33 L77 30 L75 33" stroke="#10b981" stroke-width="2.5" fill="none" stroke-linecap="round" stroke-linejoin="round"/>
  
  <!-- Arrow shaft going up -->
  <line x1="77" y1="30" x2="77" y2="20" stroke="#10b981" stroke-width="2.5" stroke-linecap="round"/>
  
  <!-- Small dots for decoration -->
  <circle cx="36" cy="34" r="2" fill="#10b981" opacity="0.6"/>
  <circle cx="46" cy="29" r="2" fill="#10b981" opacity="0.6"/>
  <circle cx="56" cy="24" r="2" fill="#10b981" opacity="0.6"/>
</svg>
