<?xml version="1.0" encoding="UTF-8"?>
<svg xmlns="http://www.w3.org/2000/svg" version="1.1" viewBox="0 0 512 512">
  <defs>
    <style>
      .cls-1 {
        fill: #fff;
      }
    </style>
  </defs>
  <!-- Generator: Adobe Illustrator 28.7.1, SVG Export Plug-In . SVG Version: 1.2.0 Build 142)  -->
  <g>
    <g id="Layer_1">
      <path class="cls-1" d="M505.1,19.1c-1.2-5.5-6.7-11-12.2-12.2C460.7,0,435.5,0,410.4,0c-103.2,0-165.1,55.2-211.4,128h-104.2c-16.3,0-35.6,11.9-42.9,26.5L2.5,253.3c-1.5,3.4-2.4,7-2.5,10.7,0,13.3,10.8,24,24,24h103.8l-22.5,22.5c-11.4,11.4-13,32.3,0,45.2l50.9,50.9c11.2,11.2,32.2,13.2,45.3,0l22.5-22.5v103.8c0,13.3,10.8,24,24,24,3.7-.1,7.3-1,10.7-2.5l98.7-49.4c14.6-7.3,26.5-26.5,26.5-42.9v-104.4c72.6-46.3,128-108.4,128-211.1,0-25.2,0-50.4-6.9-82.6ZM384,168c-22.1,0-40-17.9-40-40,0-22.1,17.9-40,40-40,22.1,0,40,17.9,40,40,0,22.1-17.9,40-40,40Z"/>
    </g>
  </g>
</svg>