<svg width="32" height="32" viewBox="0 0 32 32" fill="none" xmlns="http://www.w3.org/2000/svg">
<path d="M13.0843 21.2051L12 25L10.9157 21.2051C10.3462 19.2118 8.78817 17.6538 6.79492 17.0843L3 16L6.79492 14.9157C8.78817 14.3462 10.3462 12.7882 10.9157 10.7949L12 7L13.0843 10.7949C13.6538 12.7882 15.2118 14.3462 17.2051 14.9157L21 16L17.2051 17.0843C15.2118 17.6538 13.6538 19.2118 13.0843 21.2051Z" stroke="currentColor" stroke-width="2" stroke-linecap="round" stroke-linejoin="round"/>
<path d="M24.3452 11.6194L24 13L23.6548 11.6194C23.2518 10.0071 21.9929 8.74822 20.3806 8.34515L19 8L20.3806 7.65485C21.9929 7.25178 23.2518 5.9929 23.6548 4.38062L24 3L24.3452 4.38062C24.7482 5.9929 26.0071 7.25178 27.6194 7.65485L29 8L27.6194 8.34515C26.0071 8.74822 24.7482 10.0071 24.3452 11.6194Z" stroke="currentColor" stroke-width="2" stroke-linecap="round" stroke-linejoin="round"/>
<path d="M22.5257 27.423L22 29L21.4743 27.423C21.1757 26.5272 20.4728 25.8243 19.577 25.5257L18 25L19.577 24.4743C20.4728 24.1757 21.1757 23.4728 21.4743 22.577L22 21L22.5257 22.577C22.8243 23.4728 23.5272 24.1757 24.423 24.4743L26 25L24.423 25.5257C23.5272 25.8243 22.8243 26.5272 22.5257 27.423Z" stroke="currentColor" stroke-width="2" stroke-linecap="round" stroke-linejoin="round"/>
</svg>
