<svg width="27" height="27" viewBox="0 0 27 27" fill="none" xmlns="http://www.w3.org/2000/svg">
<path d="M17 6.11592C17 5.64238 17.2481 5.21435 17.5349 4.8376C17.8295 4.4508 18 3.992 18 3.5C18 2.11929 16.6569 1 15 1C13.3431 1 12 2.11929 12 3.5C12 3.992 12.1705 4.4508 12.4651 4.8376C12.7519 5.21435 13 5.64238 13 6.11592V6.11592C13 6.59762 12.6055 6.98662 12.124 6.97275C10.2525 6.91885 8.40112 6.7846 6.57319 6.57333C6.82168 8.72368 6.96358 10.9065 6.99349 13.1164C7.00009 13.6043 6.6039 13.9999 6.11592 14V14C5.64238 14 5.21435 13.7519 4.8376 13.4651C4.4508 13.1705 3.992 13 3.5 13C2.11929 13 1 14.3431 1 16C1 17.6569 2.11929 19 3.5 19C3.992 19 4.4508 18.8295 4.8376 18.5349C5.21435 18.2481 5.64238 18 6.11592 18V18C6.52817 18 6.85542 18.3477 6.8252 18.7588C6.65741 21.0415 6.3699 23.2909 5.9689 25.5008C7.99277 25.7542 10.046 25.9131 12.1241 25.973C12.6057 25.9868 13.0002 25.5978 13.0002 25.116V25.116C13.0002 24.6424 12.7521 24.2144 12.4652 23.8377C12.1707 23.4509 12.0002 22.9921 12.0002 22.5001C12.0002 21.1194 13.3433 20.0001 15.0002 20.0001C16.657 20.0001 18.0002 21.1194 18.0002 22.5001C18.0002 22.9921 17.8296 23.4509 17.5351 23.8377C17.2482 24.2144 17.0002 24.6424 17.0002 25.116V25.116C17.0002 25.5598 17.3709 25.9142 17.8139 25.8882C20.2657 25.7441 22.6803 25.462 25.0501 25.0496C25.4094 22.9853 25.6698 20.887 25.8262 18.7598C25.8564 18.3482 25.5288 18.0001 25.1161 18.0001V18.0001C24.6425 18.0001 24.2145 18.2481 23.8378 18.535C23.451 18.8295 22.9922 19.0001 22.5002 19.0001C21.1194 19.0001 20.0002 17.6569 20.0002 16.0001C20.0002 14.3432 21.1194 13.0001 22.5002 13.0001C22.9922 13.0001 23.451 13.1706 23.8378 13.4651C24.2145 13.752 24.6425 14.0001 25.1161 14.0001V14.0001C25.6045 14.0001 26.0011 13.6041 25.9945 13.1157C25.9618 10.6988 25.7951 8.3143 25.5015 5.9693C22.987 6.42554 20.4213 6.73487 17.8137 6.88807C17.3707 6.9141 17 6.55972 17 6.11592V6.11592Z" stroke="currentColor" stroke-width="1.5" stroke-linecap="round" stroke-linejoin="round"/>
</svg>
